<svg xmlns="http://www.w3.org/2000/svg" xmlns:xlink="http://www.w3.org/1999/xlink" width="500" zoomAndPan="magnify" viewBox="0 0 375 374.999991" height="500" preserveAspectRatio="xMidYMid meet" version="1.0"><defs><g/><clipPath id="id1"><path d="M 59.0625 239.460938 L 145.101562 239.460938 L 145.101562 313.871094 L 59.0625 313.871094 Z M 59.0625 239.460938 " clip-rule="nonzero"/></clipPath><clipPath id="id2"><path d="M 59.0625 239.460938 L 145.101562 239.460938 L 145.101562 313.871094 L 59.0625 313.871094 Z M 59.0625 239.460938 " clip-rule="nonzero"/></clipPath><clipPath id="id3"><path d="M 102.082031 239.460938 L 145.101562 313.871094 L 59.0625 313.871094 L 102.082031 239.460938 " clip-rule="nonzero"/></clipPath><clipPath id="id4"><path d="M 144.6875 239.460938 L 230.726562 239.460938 L 230.726562 313.871094 L 144.6875 313.871094 Z M 144.6875 239.460938 " clip-rule="nonzero"/></clipPath><clipPath id="id5"><path d="M 144.6875 239.460938 L 230.726562 239.460938 L 230.726562 313.871094 L 144.6875 313.871094 Z M 144.6875 239.460938 " clip-rule="nonzero"/></clipPath><clipPath id="id6"><path d="M 187.707031 239.460938 L 230.726562 313.871094 L 144.6875 313.871094 L 187.707031 239.460938 " clip-rule="nonzero"/></clipPath><clipPath id="id7"><path d="M 230.3125 239.460938 L 316.351562 239.460938 L 316.351562 313.871094 L 230.3125 313.871094 Z M 230.3125 239.460938 " clip-rule="nonzero"/></clipPath><clipPath id="id8"><path d="M 230.3125 239.460938 L 316.351562 239.460938 L 316.351562 313.871094 L 230.3125 313.871094 Z M 230.3125 239.460938 " clip-rule="nonzero"/></clipPath><clipPath id="id9"><path d="M 273.332031 239.460938 L 316.351562 313.871094 L 230.3125 313.871094 L 273.332031 239.460938 " clip-rule="nonzero"/></clipPath><clipPath id="id10"><path d="M 95.585938 164.535156 L 193.253906 164.535156 L 193.253906 250.578125 L 95.585938 250.578125 Z M 95.585938 164.535156 " clip-rule="nonzero"/></clipPath><clipPath id="id11"><path d="M 95.589844 164.535156 L 193.25 164.535156 L 193.25 250.578125 L 95.589844 250.578125 Z M 95.589844 164.535156 " clip-rule="nonzero"/></clipPath><clipPath id="id12"><path d="M 144.421875 164.535156 L 193.25 250.578125 L 95.589844 250.578125 L 144.421875 164.535156 " clip-rule="nonzero"/></clipPath><clipPath id="id13"><path d="M 181.214844 164.535156 L 278.878906 164.535156 L 278.878906 250.578125 L 181.214844 250.578125 Z M 181.214844 164.535156 " clip-rule="nonzero"/></clipPath><clipPath id="id14"><path d="M 181.214844 164.535156 L 278.875 164.535156 L 278.875 250.578125 L 181.214844 250.578125 Z M 181.214844 164.535156 " clip-rule="nonzero"/></clipPath><clipPath id="id15"><path d="M 230.046875 164.535156 L 278.875 250.578125 L 181.214844 250.578125 L 230.046875 164.535156 " clip-rule="nonzero"/></clipPath><clipPath id="id16"><path d="M 157.078125 60.617188 L 217.535156 60.617188 L 217.535156 115.265625 L 157.078125 115.265625 Z M 157.078125 60.617188 " clip-rule="nonzero"/></clipPath><clipPath id="id17"><path d="M 157.082031 60.617188 L 217.53125 60.617188 L 217.53125 115.265625 L 157.082031 115.265625 Z M 157.082031 60.617188 " clip-rule="nonzero"/></clipPath><clipPath id="id18"><path d="M 187.304688 60.617188 L 217.53125 115.265625 L 157.082031 115.265625 L 187.304688 60.617188 " clip-rule="nonzero"/></clipPath><clipPath id="id19"><path d="M 101.875 239.460938 L 187.914062 239.460938 L 187.914062 313.871094 L 101.875 313.871094 Z M 101.875 239.460938 " clip-rule="nonzero"/></clipPath><clipPath id="id20"><path d="M 101.875 239.460938 L 187.914062 239.460938 L 187.914062 313.871094 L 101.875 313.871094 Z M 101.875 239.460938 " clip-rule="nonzero"/></clipPath><clipPath id="id21"><path d="M 144.894531 313.871094 L 187.914062 239.460938 L 101.875 239.460938 L 144.894531 313.871094 " clip-rule="nonzero"/></clipPath><clipPath id="id22"><path d="M 144.6875 164.535156 L 230.726562 164.535156 L 230.726562 238.949219 L 144.6875 238.949219 Z M 144.6875 164.535156 " clip-rule="nonzero"/></clipPath><clipPath id="id23"><path d="M 144.6875 164.539062 L 230.726562 164.539062 L 230.726562 238.949219 L 144.6875 238.949219 Z M 144.6875 164.539062 " clip-rule="nonzero"/></clipPath><clipPath id="id24"><path d="M 187.707031 238.949219 L 230.726562 164.539062 L 144.6875 164.539062 L 187.707031 238.949219 " clip-rule="nonzero"/></clipPath><clipPath id="id25"><path d="M 187.5 239.460938 L 273.539062 239.460938 L 273.539062 313.871094 L 187.5 313.871094 Z M 187.5 239.460938 " clip-rule="nonzero"/></clipPath><clipPath id="id26"><path d="M 187.5 239.460938 L 273.539062 239.460938 L 273.539062 313.871094 L 187.5 313.871094 Z M 187.5 239.460938 " clip-rule="nonzero"/></clipPath><clipPath id="id27"><path d="M 230.519531 313.871094 L 273.539062 239.460938 L 187.5 239.460938 L 230.519531 313.871094 " clip-rule="nonzero"/></clipPath></defs><rect x="-37.5" width="450" fill="#ffffff" y="-37.499999" height="449.999989" fill-opacity="1"/><rect x="-37.5" width="450" fill="#ffffff" y="-37.499999" height="449.999989" fill-opacity="1"/><rect x="-37.5" width="450" fill="#ffffff" y="-37.499999" height="449.999989" fill-opacity="1"/><rect x="-37.5" width="450" fill="#ffffff" y="-37.499999" height="449.999989" fill-opacity="1"/><g clip-path="url(#id1)"><path fill="#faba4b" d="M 102.082031 239.460938 L 145.101562 313.871094 L 59.0625 313.871094 L 102.082031 239.460938 " fill-opacity="1" fill-rule="nonzero"/></g><g clip-path="url(#id2)"><g clip-path="url(#id3)"><path stroke-linecap="butt" transform="matrix(1.168376, 0, 0, 1.154808, 59.061929, 239.460306)" fill="none" stroke-linejoin="miter" d="M 36.820411 0.000546952 L 73.640334 64.435629 L 0.000488351 64.435629 L 36.820411 0.000546952 " stroke="#faba4a" stroke-width="1.290098" stroke-opacity="1" stroke-miterlimit="4"/></g></g><g clip-path="url(#id4)"><path fill="#47d9c0" d="M 187.707031 239.460938 L 230.726562 313.871094 L 144.6875 313.871094 L 187.707031 239.460938 " fill-opacity="1" fill-rule="nonzero"/></g><g clip-path="url(#id5)"><g clip-path="url(#id6)"><path stroke-linecap="butt" transform="matrix(1.168376, 0, 0, 1.154808, 144.6873, 239.460306)" fill="none" stroke-linejoin="miter" d="M 36.820094 0.000546952 L 73.640017 64.435629 L 0.00017135 64.435629 L 36.820094 0.000546952 " stroke="#47d9c0" stroke-width="1.290098" stroke-opacity="1" stroke-miterlimit="4"/></g></g><g clip-path="url(#id7)"><path fill="#faba4b" d="M 273.332031 239.460938 L 316.351562 313.871094 L 230.3125 313.871094 L 273.332031 239.460938 " fill-opacity="1" fill-rule="nonzero"/></g><g clip-path="url(#id8)"><g clip-path="url(#id9)"><path stroke-linecap="butt" transform="matrix(1.168376, 0, 0, 1.154808, 230.312685, 239.460306)" fill="none" stroke-linejoin="miter" d="M 36.819765 0.000546952 L 73.639687 64.435629 L -0.000157977 64.435629 L 36.819765 0.000546952 " stroke="#faba4b" stroke-width="1.290098" stroke-opacity="1" stroke-miterlimit="4"/></g></g><g clip-path="url(#id10)"><path fill="#fad02b" d="M 144.421875 164.535156 L 193.25 250.578125 L 95.589844 250.578125 L 144.421875 164.535156 " fill-opacity="1" fill-rule="nonzero"/></g><g clip-path="url(#id11)"><g clip-path="url(#id12)"><path stroke-linecap="butt" transform="matrix(1.156464, 0, 0, 1.164423, 95.591396, 164.536981)" fill="none" stroke-linejoin="miter" d="M 42.223952 -0.00156725 L 84.445868 73.891635 L -0.00134208 73.891635 L 42.223952 -0.00156725 " stroke="#fad02c" stroke-width="45.153427" stroke-opacity="1" stroke-miterlimit="4"/></g></g><g clip-path="url(#id13)"><path fill="#fad02b" d="M 230.046875 164.535156 L 278.875 250.578125 L 181.214844 250.578125 L 230.046875 164.535156 " fill-opacity="1" fill-rule="nonzero"/></g><g clip-path="url(#id14)"><g clip-path="url(#id15)"><path stroke-linecap="butt" transform="matrix(1.156464, 0, 0, 1.164423, 181.216766, 164.536981)" fill="none" stroke-linejoin="miter" d="M 42.223632 -0.00156725 L 84.445548 73.891635 L -0.00166235 73.891635 L 42.223632 -0.00156725 " stroke="#fad02b" stroke-width="23.221762" stroke-opacity="1" stroke-miterlimit="4"/></g></g><g clip-path="url(#id16)"><path fill="#f7d7b2" d="M 187.304688 60.617188 L 217.53125 115.265625 L 157.082031 115.265625 L 187.304688 60.617188 " fill-opacity="1" fill-rule="nonzero"/></g><g clip-path="url(#id17)"><g clip-path="url(#id18)"><path stroke-linecap="butt" transform="matrix(1.155412, 0, 0, 1.153119, 157.083011, 60.618584)" fill="none" stroke-linejoin="miter" d="M 26.15663 -0.00121108 L 52.317489 47.390649 L -0.000847953 47.390649 L 26.15663 -0.00121108 " stroke="#f7d7b2" stroke-width="1.290098" stroke-opacity="1" stroke-miterlimit="4"/></g></g><g clip-path="url(#id19)"><path fill="#fad02b" d="M 144.894531 313.871094 L 187.914062 239.460938 L 101.875 239.460938 L 144.894531 313.871094 " fill-opacity="1" fill-rule="nonzero"/></g><g clip-path="url(#id20)"><g clip-path="url(#id21)"><path stroke-linecap="butt" transform="matrix(1.168376, 0, 0, 1.154808, 101.874615, 239.460306)" fill="none" stroke-linejoin="miter" d="M 36.820253 64.435629 L 73.640175 0.000546952 L 0.000329851 0.000546952 L 36.820253 64.435629 " stroke="#fad02c" stroke-width="5.160392" stroke-opacity="1" stroke-miterlimit="4"/></g></g><g clip-path="url(#id22)"><path fill="#78ffef" d="M 187.707031 238.949219 L 230.726562 164.539062 L 144.6875 164.539062 L 187.707031 238.949219 " fill-opacity="1" fill-rule="nonzero"/></g><g clip-path="url(#id23)"><g clip-path="url(#id24)"><path stroke-linecap="butt" transform="matrix(1.168376, 0, 0, 1.154808, 144.6873, 164.538109)" fill="none" stroke-linejoin="miter" d="M 36.820094 64.435908 L 73.640017 0.000825509 L 0.00017135 0.000825509 L 36.820094 64.435908 " stroke="#78ffef" stroke-width="5.160392" stroke-opacity="1" stroke-miterlimit="4"/></g></g><g clip-path="url(#id25)"><path fill="#fad02b" d="M 230.519531 313.871094 L 273.539062 239.460938 L 187.5 239.460938 L 230.519531 313.871094 " fill-opacity="1" fill-rule="nonzero"/></g><g clip-path="url(#id26)"><g clip-path="url(#id27)"><path stroke-linecap="butt" transform="matrix(1.168376, 0, 0, 1.154808, 187.499992, 239.460306)" fill="none" stroke-linejoin="miter" d="M 36.819929 64.435629 L 73.639852 0.000546952 L 0.00000668663 0.000546952 L 36.819929 64.435629 " stroke="#fad02c" stroke-width="5.160392" stroke-opacity="1" stroke-miterlimit="4"/></g></g><g fill="#000000" fill-opacity="1"><g transform="translate(102.219377, 153.48829)"><g><path d="M 3.335938 -1.488281 C 3.335938 -0.539062 3.964844 0.226562 5.09375 0.226562 C 6.21875 0.226562 6.851562 -0.539062 6.851562 -1.488281 L 6.851562 -18.4375 L 11.539062 -18.4375 C 12.441406 -18.4375 13.164062 -19.15625 13.164062 -20.105469 C 13.164062 -21.050781 12.441406 -21.773438 11.539062 -21.773438 L 6.851562 -21.773438 L 6.851562 -24.566406 C 6.851562 -27.136719 8.203125 -29.300781 10.863281 -29.300781 C 12.125 -29.300781 12.847656 -28.984375 13.613281 -28.984375 C 14.515625 -28.984375 15.324219 -29.613281 15.324219 -30.652344 C 15.324219 -32.726562 11.945312 -32.726562 11.222656 -32.679688 C 6.714844 -32.5 3.335938 -29.929688 3.335938 -24.207031 Z M 3.335938 -1.488281 "/></g></g></g><g fill="#000000" fill-opacity="1"><g transform="translate(117.049386, 153.48829)"><g><path d="M 3.335938 -4.238281 C 3.335938 -0.179688 5.046875 0.359375 6.175781 0.359375 C 7.078125 0.359375 7.796875 -0.359375 7.796875 -1.261719 C 7.796875 -1.621094 7.617188 -1.9375 7.484375 -2.117188 C 6.941406 -2.660156 6.851562 -3.246094 6.851562 -4.238281 L 6.851562 -30.921875 C 6.851562 -31.914062 6.085938 -32.679688 5.09375 -32.679688 C 4.101562 -32.679688 3.335938 -31.867188 3.335938 -30.921875 Z M 3.335938 -4.238281 "/></g></g></g><g fill="#000000" fill-opacity="1"><g transform="translate(127.326733, 153.48829)"><g><path d="M 10.457031 -2.75 C 7.210938 -2.75 5.542969 -4.371094 5.542969 -6.898438 L 5.542969 -9.554688 C 7.121094 -9.285156 8.789062 -9.152344 10.140625 -9.152344 C 15.507812 -9.152344 17.761719 -11.675781 17.761719 -15.820312 C 17.761719 -20.285156 15.28125 -23.167969 10.277344 -23.167969 C 4.914062 -23.167969 2.027344 -19.878906 2.027344 -15.550781 L 2.027344 -7.121094 C 2.027344 -2.886719 4.957031 0.359375 10.050781 0.359375 C 12.484375 0.359375 17.355469 -0.359375 17.355469 -2.570312 C 17.355469 -3.378906 16.679688 -4.148438 15.777344 -4.148438 C 15.460938 -4.148438 15.234375 -4.058594 15.144531 -4.011719 C 13.566406 -3.289062 12.351562 -2.75 10.457031 -2.75 Z M 14.289062 -15.820312 C 14.289062 -13.972656 13.703125 -12.125 10.277344 -12.125 C 9.375 -12.125 7.210938 -12.214844 5.542969 -12.441406 L 5.542969 -15.867188 C 5.542969 -18.390625 7.257812 -19.96875 10.1875 -19.96875 C 12.800781 -19.96875 14.289062 -18.75 14.289062 -15.820312 Z M 14.289062 -15.820312 "/></g></g></g><g fill="#000000" fill-opacity="1"><g transform="translate(146.934791, 153.48829)"><g><path d="M 11.765625 -11.628906 L 17.667969 -20.507812 C 17.851562 -20.78125 17.894531 -21.09375 17.894531 -21.367188 C 17.894531 -22.3125 16.992188 -23.035156 16.183594 -23.035156 C 15.371094 -23.035156 14.964844 -22.582031 14.515625 -21.863281 L 9.78125 -14.515625 L 5.230469 -21.5 C 4.777344 -22.175781 4.238281 -23.035156 3.246094 -23.035156 C 2.253906 -23.035156 1.488281 -22.175781 1.488281 -21.230469 C 1.488281 -21.003906 1.578125 -20.691406 1.757812 -20.464844 L 7.664062 -11.539062 L 1.351562 -2.164062 C 1.171875 -1.894531 1.125 -1.667969 1.125 -1.398438 C 1.125 -0.359375 1.9375 0.359375 2.929688 0.359375 C 3.515625 0.359375 3.964844 0.0898438 4.371094 -0.539062 L 9.691406 -8.699219 L 14.785156 -0.855469 C 15.324219 0 15.6875 0.359375 16.496094 0.359375 C 17.578125 0.359375 18.300781 -0.496094 18.300781 -1.488281 C 18.300781 -1.710938 18.253906 -1.984375 18.074219 -2.253906 Z M 11.765625 -11.628906 "/></g></g></g><g fill="#000000" fill-opacity="1"><g transform="translate(166.362559, 153.48829)"><g><path d="M 6.804688 -1.398438 L 6.804688 -17.308594 C 8.113281 -19.066406 10.1875 -19.878906 12.035156 -19.878906 C 14.828125 -19.878906 15.957031 -18.390625 15.957031 -15.640625 L 15.957031 -1.398438 C 15.957031 -0.40625 16.722656 0.359375 17.714844 0.359375 C 18.660156 0.359375 19.472656 -0.40625 19.472656 -1.398438 L 19.472656 -15.6875 C 19.472656 -20.058594 17.265625 -23.167969 12.441406 -23.167969 C 10.277344 -23.167969 8.339844 -22.449219 6.804688 -21.277344 L 6.804688 -31.191406 C 6.804688 -32.183594 6.039062 -32.949219 5.046875 -32.949219 C 4.058594 -32.949219 3.335938 -32.09375 3.335938 -31.191406 L 3.335938 -1.398438 C 3.335938 -0.40625 4.101562 0.359375 5.09375 0.359375 C 6.085938 0.359375 6.804688 -0.40625 6.804688 -1.398438 Z M 6.804688 -1.398438 "/></g></g></g><g fill="#000000" fill-opacity="1"><g transform="translate(189.216109, 153.48829)"><g><path d="M 10.457031 0.359375 C 15.957031 0.359375 18.886719 -3.15625 18.886719 -7.664062 L 18.886719 -15.191406 C 18.886719 -19.699219 15.957031 -23.214844 10.457031 -23.214844 C 4.957031 -23.214844 2.027344 -19.699219 2.027344 -15.191406 L 2.027344 -7.664062 C 2.027344 -3.15625 4.957031 0.359375 10.457031 0.359375 Z M 10.457031 -2.886719 C 7.210938 -2.886719 5.542969 -4.6875 5.542969 -7.664062 L 5.542969 -15.234375 C 5.542969 -18.164062 7.210938 -19.96875 10.457031 -19.96875 C 13.703125 -19.96875 15.371094 -18.164062 15.371094 -15.234375 L 15.371094 -7.664062 C 15.371094 -4.6875 13.703125 -2.886719 10.457031 -2.886719 Z M 10.457031 -2.886719 "/></g></g></g><g fill="#000000" fill-opacity="1"><g transform="translate(210.131383, 153.48829)"><g><path d="M 3.335938 -9.152344 C 3.335938 -2.929688 4.867188 0.179688 11.179688 0.179688 C 12.441406 0.179688 13.75 0 13.75 -1.53125 C 13.75 -2.976562 12.441406 -3.15625 11.402344 -3.15625 C 11.132812 -3.15625 10.816406 -3.109375 10.546875 -3.109375 C 7.300781 -3.109375 6.851562 -4.824219 6.851562 -9.464844 L 6.851562 -18.4375 L 11.539062 -18.4375 C 12.441406 -18.4375 13.164062 -19.15625 13.164062 -20.105469 C 13.164062 -21.050781 12.441406 -21.773438 11.539062 -21.773438 L 6.851562 -21.773438 L 6.851562 -27.992188 C 6.851562 -28.9375 6.21875 -29.703125 5.09375 -29.703125 C 3.964844 -29.703125 3.335938 -28.9375 3.335938 -27.992188 Z M 3.335938 -9.152344 "/></g></g></g><g fill="#000000" fill-opacity="1"><g transform="translate(224.600811, 153.48829)"><g><path d="M 10.457031 -2.75 C 7.210938 -2.75 5.542969 -4.371094 5.542969 -6.898438 L 5.542969 -9.554688 C 7.121094 -9.285156 8.789062 -9.152344 10.140625 -9.152344 C 15.507812 -9.152344 17.761719 -11.675781 17.761719 -15.820312 C 17.761719 -20.285156 15.28125 -23.167969 10.277344 -23.167969 C 4.914062 -23.167969 2.027344 -19.878906 2.027344 -15.550781 L 2.027344 -7.121094 C 2.027344 -2.886719 4.957031 0.359375 10.050781 0.359375 C 12.484375 0.359375 17.355469 -0.359375 17.355469 -2.570312 C 17.355469 -3.378906 16.679688 -4.148438 15.777344 -4.148438 C 15.460938 -4.148438 15.234375 -4.058594 15.144531 -4.011719 C 13.566406 -3.289062 12.351562 -2.75 10.457031 -2.75 Z M 14.289062 -15.820312 C 14.289062 -13.972656 13.703125 -12.125 10.277344 -12.125 C 9.375 -12.125 7.210938 -12.214844 5.542969 -12.441406 L 5.542969 -15.867188 C 5.542969 -18.390625 7.257812 -19.96875 10.1875 -19.96875 C 12.800781 -19.96875 14.289062 -18.75 14.289062 -15.820312 Z M 14.289062 -15.820312 "/></g></g></g><g fill="#000000" fill-opacity="1"><g transform="translate(244.208869, 153.48829)"><g><path d="M 3.335938 -4.238281 C 3.335938 -0.179688 5.046875 0.359375 6.175781 0.359375 C 7.078125 0.359375 7.796875 -0.359375 7.796875 -1.261719 C 7.796875 -1.621094 7.617188 -1.9375 7.484375 -2.117188 C 6.941406 -2.660156 6.851562 -3.246094 6.851562 -4.238281 L 6.851562 -30.921875 C 6.851562 -31.914062 6.085938 -32.679688 5.09375 -32.679688 C 4.101562 -32.679688 3.335938 -31.867188 3.335938 -30.921875 Z M 3.335938 -4.238281 "/></g></g></g><g fill="#000000" fill-opacity="1"><g transform="translate(254.486216, 153.48829)"><g><path d="M 2.390625 -16.679688 C 2.390625 -10.726562 8.382812 -10.414062 11.222656 -8.878906 C 12.125 -8.382812 12.890625 -7.707031 12.890625 -6.085938 C 12.890625 -3.742188 11.222656 -2.75 8.746094 -2.75 C 6.941406 -2.75 5.5 -3.289062 4.238281 -3.785156 C 4.101562 -3.832031 4.058594 -3.875 3.785156 -3.875 C 2.703125 -3.875 2.117188 -3.019531 2.117188 -2.253906 C 2.117188 -0.179688 6.445312 0.359375 8.746094 0.359375 C 13.75 0.359375 16.316406 -2.164062 16.316406 -6.21875 C 16.316406 -12.082031 11.042969 -12.484375 7.933594 -14.019531 C 6.402344 -14.785156 5.816406 -15.507812 5.816406 -16.902344 C 5.816406 -18.976562 7.078125 -20.058594 9.828125 -20.058594 C 11.449219 -20.058594 12.304688 -19.699219 13.253906 -19.246094 C 13.523438 -19.113281 13.75 -19.023438 14.0625 -19.023438 C 15.011719 -19.023438 15.6875 -19.789062 15.6875 -20.644531 C 15.6875 -22.539062 12.035156 -23.167969 9.691406 -23.167969 C 4.914062 -23.167969 2.390625 -20.554688 2.390625 -16.679688 Z M 2.390625 -16.679688 "/></g></g></g></svg>